Coordinates
version=1
nRows=8
nColumns=36
inDegrees=yes

Units are S.I. units (second, meters, Newtons, ...)
If the header above contains a line with 'inDegrees', this indicates whether rotational values are in degrees (yes) or radians (no).

endheader
time	pelvis_tilt	pelvis_list	pelvis_rotation	pelvis_tx	pelvis_ty	pelvis_tz	hip_flexion_r	hip_adduction_r	hip_rotation_r	knee_angle_r	knee_angle_r_beta	ankle_angle_r	subtalar_angle_r	mtp_angle_r	hip_flexion_l	hip_adduction_l	hip_rotation_l	knee_angle_l	knee_angle_l_beta	ankle_angle_l	subtalar_angle_l	mtp_angle_l	lumbar_extension	lumbar_bending	lumbar_rotation	arm_flex_r	arm_add_r	arm_rot_r	elbow_flex_r	pro_sup_r	arm_flex_l	arm_add_l	arm_rot_l	elbow_flex_l	pro_sup_l
      1.16666670	     -0.08720032	     -0.00412782	     -3.18739067	      0.76140404	      1.30368141	      0.08109726	     -3.00701193	     -0.78678344	     -1.38399340	      2.88228780	      0.05030541	     12.22731192	     -7.41788164	     -7.49999986	     -3.57872512	      0.22664165	      1.25689344	      2.58516762	      0.04511969	      9.41829745	     -1.91284685	     -7.49999986	     -9.55573423	      0.95627336	     -1.57714366	      7.54552622	     -9.00442513	     13.79589113	     18.79163680	     93.07586090	      4.82507230	     -9.79736889	     15.42147058	     17.06449787	     97.01194709
      1.18333330	     -0.04878750	     -0.00154708	     -3.25007615	      0.76145785	      1.30673290	      0.08076608	     -3.06420608	     -0.78020825	     -1.29719938	      2.86491477	      0.05000220	     12.30829957	     -7.37295005	     -7.49999987	     -3.59860046	      0.22477189	      1.24169200	      2.67980082	      0.04677135	      9.43885229	     -1.93473294	     -7.49999987	     -9.55494028	      0.90971351	     -1.49487690	      7.33408339	     -8.93813744	     13.98593469	     18.25072702	     91.49788120	      4.83190313	     -9.76538758	     15.68019058	     16.65343477	     95.38191980
      1.20000000	     -0.04436981	      0.01179935	     -3.26756214	      0.75499676	      1.30647145	      0.07695145	     -3.05686305	     -0.79493081	     -1.24638766	      2.86536231	      0.05001001	     12.32865588	     -7.36116784	     -7.49999987	     -3.55823419	      0.24038719	      1.19023424	      2.73031689	      0.04765302	      9.42230054	     -1.96138656	     -7.49999987	     -9.67289857	      0.89925694	     -1.57377767	      7.14076530	     -9.04084294	     13.98239513	     18.14460432	     91.50821688	      4.77638729	     -9.79118041	     15.68477023	     16.62804865	     95.39282151
      1.21666670	      0.00205589	     -0.01157918	     -3.28856342	      0.76129672	      1.30663367	      0.08067540	     -3.10994685	     -0.75531408	     -1.19574546	      2.88766908	      0.05039933	     12.37730703	     -7.36397493	     -7.49999987	     -3.57152578	      0.21049783	      1.14078811	      2.82841245	      0.04936511	      9.42463938	     -2.01072754	     -7.49999987	     -9.85123450	      0.88390682	     -1.63966929	      6.75703071	     -9.09826921	     13.99166249	     17.95288439	     91.52257088	      4.57915093	     -9.81895546	     15.69410261	     16.54517171	     95.40517230
      1.23333330	      0.01692207	      0.00660888	     -3.28129830	      0.75450131	      1.30355535	      0.07712838	     -3.05874696	     -0.77658057	     -1.12957448	      2.93732761	      0.05126604	     12.42905554	     -7.34881822	     -7.49999987	     -3.48504358	      0.23704102	      1.05773844	      2.98226250	      0.05205030	      9.43000123	     -2.06729433	     -7.49999987	    -10.04641137	      0.86071724	     -1.70774646	      6.45548568	     -9.21067173	     13.98912800	     17.78426479	     91.51698679	      4.48362240	     -9.83902674	     15.69780779	     16.52837155	     95.39456349
      1.25000000	      0.08228140	      0.02039653	     -3.30968462	      0.75427925	      1.30061437	      0.07699806	     -3.10406132	     -0.78718572	     -0.88753957	      2.87972502	      0.05026068	     12.47429861	     -7.44273336	     -7.49999987	     -3.37762497	      0.25489217	      1.02353696	      3.32242803	      0.05798731	      9.42719329	     -2.29868678	     -7.49999987	    -10.20951849	      0.77573519	     -1.48183237	      6.40876790	     -9.07394371	     13.92109839	     15.94140397	     92.31840610	      4.70180750	     -9.83256819	     15.82371808	     16.16074024	     96.29096931
      1.26666670	      0.06960949	      0.04035464	     -3.31378914	      0.75413913	      1.29766659	      0.07740135	     -3.02070116	     -0.81337360	     -0.76204366	      2.83592783	      0.04949628	     12.49134122	     -7.34432264	     -7.49999987	     -3.19962465	      0.28646041	      0.97260976	      3.59705090	      0.06278038	      9.47770970	     -2.40189193	     -7.49999987	    -10.51654140	      0.78420265	     -1.35400171	      5.64338981	     -9.31295676	     13.91911111	     15.84979674	     91.51215427	      4.50638940	     -9.89290198	     15.78690378	     16.45887891	     95.44205364
      1.28333330	      0.02299889	      0.04104303	     -3.33269428	      0.75389844	      1.29548561	      0.07712437	     -2.88502128	     -0.83620118	     -0.58438384	      2.83293585	      0.04944406	     12.58469477	     -7.29690710	     -7.49999987	     -2.99348457	      0.29521219	      0.95115659	      3.92341846	      0.06847657	      9.38570747	     -2.67293630	     -7.49999987	    -10.90958971	      0.77344859	     -1.21305397	      5.03362488	     -9.49738846	     13.99872341	     15.83014370	     89.54864436	      4.12686876	    -10.01388143	     15.83309956	     16.73695399	     93.44809610
